<?xml version="1.0" encoding="UTF-8" standalone="no"?>
<!-- Generator: Adobe Illustrator 18.1.1, SVG Export Plug-In . SVG Version: 6.00 Build 0)  -->

<svg
   xmlns:dc="http://purl.org/dc/elements/1.1/"
   xmlns:cc="http://creativecommons.org/ns#"
   xmlns:rdf="http://www.w3.org/1999/02/22-rdf-syntax-ns#"
   xmlns:svg="http://www.w3.org/2000/svg"
   xmlns="http://www.w3.org/2000/svg"
   xmlns:sodipodi="http://sodipodi.sourceforge.net/DTD/sodipodi-0.dtd"
   xmlns:inkscape="http://www.inkscape.org/namespaces/inkscape"
   version="1.1"
   id="Layer_1"
   x="0px"
   y="0px"
   viewBox="0 0 535.38007 63.657201"
   enable-background="new 0 0 400 225"
   xml:space="preserve"
   inkscape:version="0.48.5 r10040"
   width="100%"
   height="100%"
   sodipodi:docname="recorder-logo-blue.svg"><metadata
     id="metadata43"><rdf:RDF><cc:Work
         rdf:about=""><dc:format>image/svg+xml</dc:format><dc:type
           rdf:resource="http://purl.org/dc/dcmitype/StillImage" /><dc:title /></cc:Work></rdf:RDF></metadata><defs
     id="defs41" /><sodipodi:namedview
     pagecolor="#ffffff"
     bordercolor="#666666"
     borderopacity="1"
     objecttolerance="10"
     gridtolerance="10"
     guidetolerance="10"
     inkscape:pageopacity="0"
     inkscape:pageshadow="2"
     inkscape:window-width="1920"
     inkscape:window-height="996"
     id="namedview39"
     showgrid="false"
     inkscape:zoom="1.93"
     inkscape:cx="265.04323"
     inkscape:cy="31.605969"
     inkscape:window-x="0"
     inkscape:window-y="24"
     inkscape:window-maximized="1"
     inkscape:current-layer="Layer_1"
     fit-margin-top="1"
     fit-margin-left="1"
     fit-margin-right="1"
     fit-margin-bottom="1"
     units="mm"
     showborder="true" /><path
     style="fill:#ffffff;fill-opacity:1"
     inkscape:connector-curvature="0"
     id="path5"
     d="m 258.84337,20.051237 h -3.6 c -1,0 -1.8,0.8 -1.8,1.8 v 13.9 c 0,1.8 -0.2,3.2 -0.7,4.3 -0.9,2 -2.6,3 -5,3 -1.9,0 -3.2,-0.7 -3.8,-2.1 -0.4,-0.8 -0.5,-2 -0.5,-3.5 v -15.5 c 0,-1 -0.8,-1.8 -1.8,-1.8 h -3.7 c -1,0 -1.8,0.8 -1.8,1.8 v 15.5 c 0,3.1 0.4,5.5 1.2,7.1 1.4,2.9 4.1,4.4 8.2,4.4 1.4,0 2.6,-0.2 3.7,-0.6 1,-0.4 2.1,-1.1 3.2,-2.1 0.4,-0.3 0.7,-0.7 1,-1.1 0.3,-0.4 0.4,-0.7 0.5,-0.8 v 2.2 c 0,1 0.8,1.8 1.8,1.8 h 3.3 c 1,0 1.8,-0.8 1.8,-1.8 v -24.7 c -0.2,-1 -1,-1.8 -2,-1.8 z" /><path
     style="fill:#ffffff;fill-opacity:1"
     inkscape:connector-curvature="0"
     id="path7"
     d="m 200.14337,10.551237 h -3.6 c -1,0 -1.8,0.8 -1.8,1.8 v 34.2 c 0,1 0.8,1.8 1.8,1.8 h 3.6 c 1,0 1.8,-0.8 1.8,-1.8 v -34.2 c 0,-1 -0.8,-1.8 -1.8,-1.8 z" /><g
     id="g9"
     transform="translate(-49.556629,-80.448763)"
     style="fill:#ffffff;fill-opacity:1"><path
       style="fill:#ffffff;fill-opacity:1"
       inkscape:connector-curvature="0"
       id="path11"
       d="m 185.9,100.5 h -3.6 c -1,0 -1.8,0.8 -1.8,1.8 V 127 c 0,1 0.8,1.8 1.8,1.8 h 3.6 c 1,0 1.8,-0.8 1.8,-1.8 v -24.7 c 0,-1 -0.8,-1.8 -1.8,-1.8 z" /><path
       style="fill:#ffffff;fill-opacity:1"
       inkscape:connector-curvature="0"
       id="path13"
       d="m 180.4,95.8 c 0,1 0.8,1.8 1.8,1.8 h 3.6 c 1,0 1.8,-0.8 1.8,-1.8 v -3 c 0,-1 -0.8,-1.8 -1.8,-1.8 h -3.6 c -1,0 -1.8,0.8 -1.8,1.8 v 3 z" /></g><path
     style="fill:#ffffff;fill-opacity:1"
     inkscape:connector-curvature="0"
     id="path15"
     d="m 229.64337,44.551237 c -2.3,2.9 -5.8,4.3 -10.5,4.3 -4.7,0 -8.2,-1.4 -10.5,-4.3 -2.3,-2.9 -3.5,-6.3 -3.5,-10.3 0,-4 1.2,-7.4 3.5,-10.3 2.3,-2.9 5.8,-4.4 10.5,-4.4 4.7,0 8.2,1.5 10.5,4.4 2.3,2.9 3.5,6.3 3.5,10.3 -0.1,4 -1.2,7.4 -3.5,10.3 z m -5.8,-4 c 1.1,-1.5 1.7,-3.6 1.7,-6.4 0,-2.8 -0.6,-4.9 -1.7,-6.4 -1.1,-1.5 -2.7,-2.2 -4.8,-2.2 -2.1,0 -3.7,0.7 -4.8,2.2 -1.1,1.5 -1.7,3.6 -1.7,6.4 0,2.7 0.6,4.9 1.7,6.4 1.1,1.5 2.7,2.2 4.8,2.2 2.1,0.1 3.7,-0.7 4.8,-2.2 z" /><path
     style="fill:#ffffff;fill-opacity:1"
     inkscape:connector-curvature="0"
     id="path17"
     d="m 288.64337,10.551237 h -3.6 c -1,0 -1.8,0.8 -1.8,1.8 v 11.6 c -0.8,-1.3 -1.8,-2.3 -3.1,-3 -1.3,-0.7 -2.8,-1.1 -4.4,-1.1 -3.6,0 -6.5,1.3 -8.6,4 -2.1,2.7 -3.2,6.4 -3.2,11.1 0,4.1 1.1,7.4 3.3,10 2.2,2.6 4.9,3.9 8.1,3.9 1.9,0 3.6,-0.4 4.9,-1.1 1.3,-0.7 2.5,-1.9 3.5,-3.6 v 2.5 c 0,1 0.8,1.8 1.8,1.8 h 3.3 c 1,0 1.8,-0.8 1.8,-1.8 v -34.3 c -0.2,-1 -1,-1.8 -2,-1.8 z m -6.8,29.9 c -1.1,1.5 -2.6,2.3 -4.6,2.3 -2,0 -3.5,-0.8 -4.5,-2.3 -1,-1.5 -1.5,-3.5 -1.5,-6.1 0,-2.4 0.5,-4.3 1.5,-5.9 1,-1.6 2.5,-2.4 4.6,-2.4 1.4,0 2.6,0.4 3.6,1.3 1.7,1.4 2.5,3.8 2.5,7.2 0,2.4 -0.6,4.4 -1.6,5.9 z" /><path
     style="fill:#ffffff;fill-opacity:1"
     inkscape:connector-curvature="0"
     id="path19"
     d="m 165.84337,45.651237 0,0 -7.7,-11.4 7.4,-11.4 0,0 c 0.2,-0.3 0.2,-0.6 0.2,-0.9 0,-1 -0.8,-1.8 -1.8,-1.8 h -4 c -0.7,0 -1.3,0.4 -1.6,0.9 l -4.2,7.5 -4.3,-7.5 v 0 c -0.3,-0.5 -0.9,-0.9 -1.6,-0.9 h -4.3 c -1,0 -1.8,0.8 -1.8,1.8 0,0.3 0.1,0.6 0.2,0.9 v 0 l 7.3,11.5 -7.7,11.4 v 0 c -0.2,0.3 -0.2,0.6 -0.2,0.9 0,1 0.8,1.8 1.8,1.8 h 4.2 c 0.7,0 1.3,-0.4 1.6,-0.9 v 0 l 4.5,-7.8 4.4,7.8 c 0.3,0.5 0.9,0.9 1.6,0.9 h 4.5 c 1,0 1.8,-0.8 1.8,-1.8 -0.1,-0.4 -0.1,-0.7 -0.3,-1 z" /><g
     id="g21"
     transform="translate(-49.556629,-80.448763)"
     style="fill:#ffffff;fill-opacity:1"><path
       style="fill:#ffffff;fill-opacity:1"
       inkscape:connector-curvature="0"
       id="path23"
       d="m 241,120.2 c 0,-0.2 0,-0.3 -0.1,-0.5 0,-0.2 -0.1,-0.3 -0.2,-0.5 -0.3,-0.5 -0.9,-0.9 -1.6,-0.9 h -3.6 c -0.8,0 -1.6,0.6 -1.8,1.4 -0.2,0.8 -0.6,1.6 -1,2.2 -0.7,0.9 -1.9,1.4 -3.6,1.4 -2.4,0 -4,-1.1 -4.8,-3.4 -0.5,-1.2 -0.7,-2.8 -0.7,-4.8 0,-2.1 0.2,-3.8 0.7,-5.1 0.9,-2.4 2.5,-3.6 5,-3.6 1.7,0 2.9,0.6 3.7,1.7 0.3,0.4 0.5,0.9 0.7,1.4 0,0 0,0 0,0 0,0.2 0.1,0.3 0.2,0.5 0.3,0.5 0.9,0.9 1.6,0.9 h 3.8 c 1,0 1.8,-0.8 1.8,-1.8 0,-0.2 0,-0.3 -0.1,-0.5 h 0 c -0.6,-2.7 -1.8,-4.7 -3.5,-5.9 -2.2,-1.5 -5,-2.3 -8.4,-2.3 -4,0 -7.2,1.3 -9.5,3.9 -2.3,2.6 -3.4,6.3 -3.4,11 0,4.2 1,7.6 3.1,10.2 2.1,2.6 5.3,3.9 9.7,3.9 4.4,0 7.7,-1.6 10,-4.7 0.9,-1.2 1.5,-2.5 1.9,-3.8 0,-0.1 0.1,-0.2 0.1,-0.3 l 0,0 c 0,-0.2 0,-0.3 0,-0.4 z" /></g><g
     id="g25"
     transform="translate(-49.556629,-80.448763)"
     style="fill:#ffffff;fill-opacity:1"><path
       style="fill:#ffffff;fill-opacity:1"
       inkscape:connector-curvature="0"
       id="path27"
       d="m 174.1,91 h -9.3 c -0.7,0 -1.3,0.4 -1.6,0.9 -0.1,0.1 -0.1,0.3 -0.2,0.4 l -5.1,25.3 -5.2,-25.4 c 0,-0.2 -0.1,-0.3 -0.2,-0.5 -0.3,-0.5 -0.8,-0.9 -1.5,-0.9 0,0 -9.5,0 -9.5,0 -1,0 -1.8,0.8 -1.8,1.8 V 127 c 0,1 0.8,1.8 1.8,1.8 h 3.6 c 1,0 1.8,-0.8 1.8,-1.8 0,0 0,-28 0,-28.7 l 6.6,29.2 0,0 c 0,0.2 0.1,0.3 0.2,0.5 0.3,0.5 0.9,0.9 1.6,0.9 h 4.7 c 0.7,0 1.3,-0.4 1.6,-0.9 0.1,-0.1 0.1,-0.3 0.2,-0.5 l 0.1,-0.5 6.6,-28.7 c 0,0.7 0,28.7 0,28.7 0,1 0.8,1.8 1.8,1.8 h 3.6 c 1,0 1.8,-0.8 1.8,-1.8 l 0,-34.2 c 0.2,-1 -0.6,-1.8 -1.6,-1.8 z" /></g><g
     id="g29"
     transform="translate(-49.556629,-80.448763)"
     style="fill:#ffffff;fill-opacity:1"><path
       style="fill:#ffffff;fill-opacity:1"
       inkscape:connector-curvature="0"
       id="path31"
       d="m 124.9,133 c -0.5,0 -0.9,-0.1 -1.3,-0.4 -1.1,-0.7 -1.4,-2.2 -0.6,-3.3 2.2,-3.3 3.3,-7.1 3.3,-11.1 0,-4 -1.2,-7.8 -3.3,-11.1 -0.7,-1.1 -0.4,-2.6 0.6,-3.3 1.1,-0.7 2.5,-0.4 3.3,0.6 2.7,4 4.1,8.8 4.1,13.7 0,4.9 -1.4,9.6 -4.1,13.7 -0.5,0.8 -1.3,1.2 -2,1.2 l 0,0 z" /></g><g
     id="g33"
     transform="translate(-49.556629,-80.448763)"
     style="fill:#ffffff;fill-opacity:1"><path
       style="fill:#ffffff;fill-opacity:1"
       inkscape:connector-curvature="0"
       id="path35"
       d="m 118.1,129.2 c -0.5,0 -0.9,-0.1 -1.3,-0.4 -1.1,-0.7 -1.4,-2.2 -0.6,-3.3 1.4,-2.1 2.2,-4.6 2.2,-7.2 0,-2.6 -0.8,-5.1 -2.2,-7.2 -0.7,-1.1 -0.4,-2.6 0.6,-3.3 1.1,-0.7 2.5,-0.4 3.3,0.6 2,2.9 3,6.3 3,9.9 0,3.5 -1,6.9 -3,9.9 -0.5,0.6 -1.2,1 -2,1 l 0,0 z" /></g><path
     style="fill:#ffffff;fill-opacity:1"
     inkscape:connector-curvature="0"
     id="path37"
     d="m 57.543371,27.451237 c -0.9,-9.5 -8.9,-16.9 -18.6,-16.9 -8,0 -15.2,5.2 -17.7,12.7 -6.1,0.9 -10.699999,6.1 -10.699999,12.5 0,7 5.599999,12.6 12.599999,12.6 h 32.2 c 5.8,0 10.5,-4.7 10.5,-10.6 0,-5 -3.6,-9.2 -8.3,-10.3 z m -2.3,16.2 h -32.2 c -4.3,0 -7.9,-3.5 -7.9,-7.9 0,-4.3 3.5,-7.9 7.9,-7.9 2.1,0 4.1,0.8 5.6,2.3 0.9,0.9 2.4,0.9 3.3,0 0.9,-0.9 0.9,-2.4 0,-3.4 -1.6,-1.6 -3.6,-2.7 -5.8,-3.3 2.2,-4.9 7.2,-8.2 12.8,-8.2 7.7,0 14,6.3 14,14 0,1.5 -0.2,3 -0.7,4.4 -0.4,1.2 0.3,2.6 1.5,3 0.2,0.1 0.5,0.1 0.7,0.1 1,0 1.9,-0.6 2.2,-1.6 0.3,-0.9 0.5,-1.9 0.7,-2.9 2.2,0.8 3.7,3 3.7,5.4 0.1,3.4 -2.6,6 -5.8,6 z" /><text
     xml:space="preserve"
     style="font-size:49px;font-style:normal;font-variant:normal;font-weight:bold;font-stretch:normal;text-align:start;line-height:125%;writing-mode:lr-tb;text-anchor:start;fill:#ffffff;fill-opacity:1;fill-rule:nonzero;stroke:none;font-family:Noto Sans CJK KR;-inkscape-font-specification:Noto Sans CJK KR Bold"
     x="302.36908"
     y="48.194187"
     id="text3020"
     sodipodi:linespacing="125%"><tspan
       sodipodi:role="line"
       id="tspan3022"
       x="302.36908"
       y="48.194187"
       style="font-size:49px;font-style:normal;font-variant:normal;font-weight:bold;font-stretch:semi-condensed;text-align:start;line-height:125%;letter-spacing:-1.38999999px;writing-mode:lr-tb;text-anchor:start;fill:#52aad8;fill-opacity:1;font-family:DejaVu Sans;-inkscape-font-specification:DejaVu Sans Bold Semi-Condensed">Recorder</tspan></text>
</svg>