<?xml version="1.0" encoding="UTF-8" standalone="no"?>
<!-- Generator: Adobe Illustrator 18.1.1, SVG Export Plug-In . SVG Version: 6.00 Build 0)  -->

<svg
   xmlns:dc="http://purl.org/dc/elements/1.1/"
   xmlns:cc="http://creativecommons.org/ns#"
   xmlns:rdf="http://www.w3.org/1999/02/22-rdf-syntax-ns#"
   xmlns:svg="http://www.w3.org/2000/svg"
   xmlns="http://www.w3.org/2000/svg"
   xmlns:sodipodi="http://sodipodi.sourceforge.net/DTD/sodipodi-0.dtd"
   xmlns:inkscape="http://www.inkscape.org/namespaces/inkscape"
   version="1.1"
   id="Layer_1"
   x="0px"
   y="0px"
   viewBox="0 0 535.38007 63.657201"
   enable-background="new 0 0 400 225"
   xml:space="preserve"
   inkscape:version="0.92.1 r15371"
   width="100%"
   height="100%"
   sodipodi:docname="recorder-logo-blue.svg"><metadata
     id="metadata43"><rdf:RDF><cc:Work
         rdf:about=""><dc:format>image/svg+xml</dc:format><dc:type
           rdf:resource="http://purl.org/dc/dcmitype/StillImage" /><dc:title /></cc:Work></rdf:RDF></metadata><defs
     id="defs41" /><sodipodi:namedview
     pagecolor="#ffffff"
     bordercolor="#666666"
     borderopacity="1"
     objecttolerance="10"
     gridtolerance="10"
     guidetolerance="10"
     inkscape:pageopacity="0"
     inkscape:pageshadow="2"
     inkscape:window-width="1920"
     inkscape:window-height="996"
     id="namedview39"
     showgrid="false"
     inkscape:zoom="1.93"
     inkscape:cx="171.26085"
     inkscape:cy="29.53343"
     inkscape:window-x="0"
     inkscape:window-y="24"
     inkscape:window-maximized="1"
     inkscape:current-layer="Layer_1"
     fit-margin-top="1"
     fit-margin-left="1"
     fit-margin-right="1"
     fit-margin-bottom="1"
     units="mm"
     showborder="true" /><path
     style="fill:#ffffff;fill-opacity:1"
     inkscape:connector-curvature="0"
     id="path5"
     d="m 258.84337,20.051237 h -3.6 c -1,0 -1.8,0.8 -1.8,1.8 v 13.9 c 0,1.8 -0.2,3.2 -0.7,4.3 -0.9,2 -2.6,3 -5,3 -1.9,0 -3.2,-0.7 -3.8,-2.1 -0.4,-0.8 -0.5,-2 -0.5,-3.5 v -15.5 c 0,-1 -0.8,-1.8 -1.8,-1.8 h -3.7 c -1,0 -1.8,0.8 -1.8,1.8 v 15.5 c 0,3.1 0.4,5.5 1.2,7.1 1.4,2.9 4.1,4.4 8.2,4.4 1.4,0 2.6,-0.2 3.7,-0.6 1,-0.4 2.1,-1.1 3.2,-2.1 0.4,-0.3 0.7,-0.7 1,-1.1 0.3,-0.4 0.4,-0.7 0.5,-0.8 v 2.2 c 0,1 0.8,1.8 1.8,1.8 h 3.3 c 1,0 1.8,-0.8 1.8,-1.8 v -24.7 c -0.2,-1 -1,-1.8 -2,-1.8 z" /><path
     style="fill:#ffffff;fill-opacity:1"
     inkscape:connector-curvature="0"
     id="path7"
     d="m 200.14337,10.551237 h -3.6 c -1,0 -1.8,0.8 -1.8,1.8 v 34.2 c 0,1 0.8,1.8 1.8,1.8 h 3.6 c 1,0 1.8,-0.8 1.8,-1.8 v -34.2 c 0,-1 -0.8,-1.8 -1.8,-1.8 z" /><g
     id="g9"
     transform="translate(-49.556629,-80.448763)"
     style="fill:#ffffff;fill-opacity:1"><path
       style="fill:#ffffff;fill-opacity:1"
       inkscape:connector-curvature="0"
       id="path11"
       d="m 185.9,100.5 h -3.6 c -1,0 -1.8,0.8 -1.8,1.8 V 127 c 0,1 0.8,1.8 1.8,1.8 h 3.6 c 1,0 1.8,-0.8 1.8,-1.8 v -24.7 c 0,-1 -0.8,-1.8 -1.8,-1.8 z" /><path
       style="fill:#ffffff;fill-opacity:1"
       inkscape:connector-curvature="0"
       id="path13"
       d="m 180.4,95.8 c 0,1 0.8,1.8 1.8,1.8 h 3.6 c 1,0 1.8,-0.8 1.8,-1.8 v -3 c 0,-1 -0.8,-1.8 -1.8,-1.8 h -3.6 c -1,0 -1.8,0.8 -1.8,1.8 v 3 z" /></g><path
     style="fill:#ffffff;fill-opacity:1"
     inkscape:connector-curvature="0"
     id="path15"
     d="m 229.64337,44.551237 c -2.3,2.9 -5.8,4.3 -10.5,4.3 -4.7,0 -8.2,-1.4 -10.5,-4.3 -2.3,-2.9 -3.5,-6.3 -3.5,-10.3 0,-4 1.2,-7.4 3.5,-10.3 2.3,-2.9 5.8,-4.4 10.5,-4.4 4.7,0 8.2,1.5 10.5,4.4 2.3,2.9 3.5,6.3 3.5,10.3 -0.1,4 -1.2,7.4 -3.5,10.3 z m -5.8,-4 c 1.1,-1.5 1.7,-3.6 1.7,-6.4 0,-2.8 -0.6,-4.9 -1.7,-6.4 -1.1,-1.5 -2.7,-2.2 -4.8,-2.2 -2.1,0 -3.7,0.7 -4.8,2.2 -1.1,1.5 -1.7,3.6 -1.7,6.4 0,2.7 0.6,4.9 1.7,6.4 1.1,1.5 2.7,2.2 4.8,2.2 2.1,0.1 3.7,-0.7 4.8,-2.2 z" /><path
     style="fill:#ffffff;fill-opacity:1"
     inkscape:connector-curvature="0"
     id="path17"
     d="m 288.64337,10.551237 h -3.6 c -1,0 -1.8,0.8 -1.8,1.8 v 11.6 c -0.8,-1.3 -1.8,-2.3 -3.1,-3 -1.3,-0.7 -2.8,-1.1 -4.4,-1.1 -3.6,0 -6.5,1.3 -8.6,4 -2.1,2.7 -3.2,6.4 -3.2,11.1 0,4.1 1.1,7.4 3.3,10 2.2,2.6 4.9,3.9 8.1,3.9 1.9,0 3.6,-0.4 4.9,-1.1 1.3,-0.7 2.5,-1.9 3.5,-3.6 v 2.5 c 0,1 0.8,1.8 1.8,1.8 h 3.3 c 1,0 1.8,-0.8 1.8,-1.8 v -34.3 c -0.2,-1 -1,-1.8 -2,-1.8 z m -6.8,29.9 c -1.1,1.5 -2.6,2.3 -4.6,2.3 -2,0 -3.5,-0.8 -4.5,-2.3 -1,-1.5 -1.5,-3.5 -1.5,-6.1 0,-2.4 0.5,-4.3 1.5,-5.9 1,-1.6 2.5,-2.4 4.6,-2.4 1.4,0 2.6,0.4 3.6,1.3 1.7,1.4 2.5,3.8 2.5,7.2 0,2.4 -0.6,4.4 -1.6,5.9 z" /><path
     style="fill:#ffffff;fill-opacity:1"
     inkscape:connector-curvature="0"
     id="path19"
     d="m 165.84337,45.651237 0,0 -7.7,-11.4 7.4,-11.4 0,0 c 0.2,-0.3 0.2,-0.6 0.2,-0.9 0,-1 -0.8,-1.8 -1.8,-1.8 h -4 c -0.7,0 -1.3,0.4 -1.6,0.9 l -4.2,7.5 -4.3,-7.5 v 0 c -0.3,-0.5 -0.9,-0.9 -1.6,-0.9 h -4.3 c -1,0 -1.8,0.8 -1.8,1.8 0,0.3 0.1,0.6 0.2,0.9 v 0 l 7.3,11.5 -7.7,11.4 v 0 c -0.2,0.3 -0.2,0.6 -0.2,0.9 0,1 0.8,1.8 1.8,1.8 h 4.2 c 0.7,0 1.3,-0.4 1.6,-0.9 v 0 l 4.5,-7.8 4.4,7.8 c 0.3,0.5 0.9,0.9 1.6,0.9 h 4.5 c 1,0 1.8,-0.8 1.8,-1.8 -0.1,-0.4 -0.1,-0.7 -0.3,-1 z" /><g
     id="g21"
     transform="translate(-49.556629,-80.448763)"
     style="fill:#ffffff;fill-opacity:1"><path
       style="fill:#ffffff;fill-opacity:1"
       inkscape:connector-curvature="0"
       id="path23"
       d="m 241,120.2 c 0,-0.2 0,-0.3 -0.1,-0.5 0,-0.2 -0.1,-0.3 -0.2,-0.5 -0.3,-0.5 -0.9,-0.9 -1.6,-0.9 h -3.6 c -0.8,0 -1.6,0.6 -1.8,1.4 -0.2,0.8 -0.6,1.6 -1,2.2 -0.7,0.9 -1.9,1.4 -3.6,1.4 -2.4,0 -4,-1.1 -4.8,-3.4 -0.5,-1.2 -0.7,-2.8 -0.7,-4.8 0,-2.1 0.2,-3.8 0.7,-5.1 0.9,-2.4 2.5,-3.6 5,-3.6 1.7,0 2.9,0.6 3.7,1.7 0.3,0.4 0.5,0.9 0.7,1.4 0,0 0,0 0,0 0,0.2 0.1,0.3 0.2,0.5 0.3,0.5 0.9,0.9 1.6,0.9 h 3.8 c 1,0 1.8,-0.8 1.8,-1.8 0,-0.2 0,-0.3 -0.1,-0.5 h 0 c -0.6,-2.7 -1.8,-4.7 -3.5,-5.9 -2.2,-1.5 -5,-2.3 -8.4,-2.3 -4,0 -7.2,1.3 -9.5,3.9 -2.3,2.6 -3.4,6.3 -3.4,11 0,4.2 1,7.6 3.1,10.2 2.1,2.6 5.3,3.9 9.7,3.9 4.4,0 7.7,-1.6 10,-4.7 0.9,-1.2 1.5,-2.5 1.9,-3.8 0,-0.1 0.1,-0.2 0.1,-0.3 l 0,0 c 0,-0.2 0,-0.3 0,-0.4 z" /></g><g
     id="g25"
     transform="translate(-49.556629,-80.448763)"
     style="fill:#ffffff;fill-opacity:1"><path
       style="fill:#ffffff;fill-opacity:1"
       inkscape:connector-curvature="0"
       id="path27"
       d="m 174.1,91 h -9.3 c -0.7,0 -1.3,0.4 -1.6,0.9 -0.1,0.1 -0.1,0.3 -0.2,0.4 l -5.1,25.3 -5.2,-25.4 c 0,-0.2 -0.1,-0.3 -0.2,-0.5 -0.3,-0.5 -0.8,-0.9 -1.5,-0.9 0,0 -9.5,0 -9.5,0 -1,0 -1.8,0.8 -1.8,1.8 V 127 c 0,1 0.8,1.8 1.8,1.8 h 3.6 c 1,0 1.8,-0.8 1.8,-1.8 0,0 0,-28 0,-28.7 l 6.6,29.2 0,0 c 0,0.2 0.1,0.3 0.2,0.5 0.3,0.5 0.9,0.9 1.6,0.9 h 4.7 c 0.7,0 1.3,-0.4 1.6,-0.9 0.1,-0.1 0.1,-0.3 0.2,-0.5 l 0.1,-0.5 6.6,-28.7 c 0,0.7 0,28.7 0,28.7 0,1 0.8,1.8 1.8,1.8 h 3.6 c 1,0 1.8,-0.8 1.8,-1.8 l 0,-34.2 c 0.2,-1 -0.6,-1.8 -1.6,-1.8 z" /></g><g
     id="g29"
     transform="translate(-49.556629,-80.448763)"
     style="fill:#ffffff;fill-opacity:1"><path
       style="fill:#ffffff;fill-opacity:1"
       inkscape:connector-curvature="0"
       id="path31"
       d="m 124.9,133 c -0.5,0 -0.9,-0.1 -1.3,-0.4 -1.1,-0.7 -1.4,-2.2 -0.6,-3.3 2.2,-3.3 3.3,-7.1 3.3,-11.1 0,-4 -1.2,-7.8 -3.3,-11.1 -0.7,-1.1 -0.4,-2.6 0.6,-3.3 1.1,-0.7 2.5,-0.4 3.3,0.6 2.7,4 4.1,8.8 4.1,13.7 0,4.9 -1.4,9.6 -4.1,13.7 -0.5,0.8 -1.3,1.2 -2,1.2 l 0,0 z" /></g><g
     id="g33"
     transform="translate(-49.556629,-80.448763)"
     style="fill:#ffffff;fill-opacity:1"><path
       style="fill:#ffffff;fill-opacity:1"
       inkscape:connector-curvature="0"
       id="path35"
       d="m 118.1,129.2 c -0.5,0 -0.9,-0.1 -1.3,-0.4 -1.1,-0.7 -1.4,-2.2 -0.6,-3.3 1.4,-2.1 2.2,-4.6 2.2,-7.2 0,-2.6 -0.8,-5.1 -2.2,-7.2 -0.7,-1.1 -0.4,-2.6 0.6,-3.3 1.1,-0.7 2.5,-0.4 3.3,0.6 2,2.9 3,6.3 3,9.9 0,3.5 -1,6.9 -3,9.9 -0.5,0.6 -1.2,1 -2,1 l 0,0 z" /></g><path
     style="fill:#ffffff;fill-opacity:1"
     inkscape:connector-curvature="0"
     id="path37"
     d="m 57.543371,27.451237 c -0.9,-9.5 -8.9,-16.9 -18.6,-16.9 -8,0 -15.2,5.2 -17.7,12.7 -6.1,0.9 -10.699999,6.1 -10.699999,12.5 0,7 5.599999,12.6 12.599999,12.6 h 32.2 c 5.8,0 10.5,-4.7 10.5,-10.6 0,-5 -3.6,-9.2 -8.3,-10.3 z m -2.3,16.2 h -32.2 c -4.3,0 -7.9,-3.5 -7.9,-7.9 0,-4.3 3.5,-7.9 7.9,-7.9 2.1,0 4.1,0.8 5.6,2.3 0.9,0.9 2.4,0.9 3.3,0 0.9,-0.9 0.9,-2.4 0,-3.4 -1.6,-1.6 -3.6,-2.7 -5.8,-3.3 2.2,-4.9 7.2,-8.2 12.8,-8.2 7.7,0 14,6.3 14,14 0,1.5 -0.2,3 -0.7,4.4 -0.4,1.2 0.3,2.6 1.5,3 0.2,0.1 0.5,0.1 0.7,0.1 1,0 1.9,-0.6 2.2,-1.6 0.3,-0.9 0.5,-1.9 0.7,-2.9 2.2,0.8 3.7,3 3.7,5.4 0.1,3.4 -2.6,6 -5.8,6 z" /><g
     aria-label="Recorder"
     style="font-style:normal;font-variant:normal;font-weight:bold;font-stretch:normal;line-height:0%;font-family:'Noto Sans CJK KR';-inkscape-font-specification:'Noto Sans CJK KR Bold';text-align:start;writing-mode:lr-tb;text-anchor:start;fill:#ffffff;fill-opacity:1;fill-rule:nonzero;stroke:none"
     id="text3020"><path
       d="m 318.20795,28.311863 q 2.58398,0 3.70849,-1.07666 1.14844,-1.07666 1.14844,-3.541016 0,-2.44043 -1.14844,-3.493164 -1.12451,-1.052734 -3.70849,-1.052734 h -3.49317 v 9.163574 z m -3.49317,6.364258 v 13.518066 h -8.30224 V 12.472996 h 12.65673 q 6.36426,0 9.30713,2.368652 2.9668,2.368652 2.9668,7.48877 0,3.541015 -1.53125,5.813964 -1.53125,2.27295 -4.6416,3.34961 1.69873,0.430664 3.03857,1.961914 1.36377,1.507324 2.72754,4.59375 l 4.49805,10.144531 h -8.82861 l -3.89991,-8.876465 q -1.19629,-2.679687 -2.4165,-3.660644 -1.22022,-0.980957 -3.22998,-0.980957 z"
       style="font-style:normal;font-variant:normal;font-weight:bold;font-stretch:semi-condensed;font-size:49px;line-height:125%;font-family:'DejaVu Sans';-inkscape-font-specification:'DejaVu Sans Bold Semi-Condensed';text-align:start;letter-spacing:-1.38999999px;writing-mode:lr-tb;text-anchor:start;fill:#52aad8;fill-opacity:1"
       id="path4500" /><path
       d="m 362.73152,34.723972 v 2.44043 h -18.01611 q 0.26318,3.014648 1.93799,4.521973 1.69873,1.507324 4.71338,1.507324 2.44043,0 4.97656,-0.789551 2.56006,-0.813476 5.23974,-2.44043 v 6.603516 q -2.72753,1.148438 -5.479,1.722656 -2.72754,0.598145 -5.45508,0.598145 -6.55566,0 -10.19238,-3.68457 -3.61279,-3.708497 -3.61279,-10.38379 0,-6.555664 3.56494,-10.312011 3.56494,-3.756348 9.80957,-3.756348 5.69433,0 9.09179,3.804199 3.42139,3.8042 3.42139,10.168457 z m -7.91943,-2.847168 q 0,-2.440429 -1.29199,-3.923828 -1.26807,-1.507324 -3.34961,-1.507324 -2.2251,0 -3.63672,1.411621 -1.3877,1.387695 -1.74658,4.019531 z"
       style="font-style:normal;font-variant:normal;font-weight:bold;font-stretch:semi-condensed;font-size:49px;line-height:125%;font-family:'DejaVu Sans';-inkscape-font-specification:'DejaVu Sans Bold Semi-Condensed';text-align:start;letter-spacing:-1.38999999px;writing-mode:lr-tb;text-anchor:start;fill:#52aad8;fill-opacity:1"
       id="path4502" /><path
       d="m 386.70285,22.234715 v 6.986328 q -1.55518,-1.196289 -3.1582,-1.770508 -1.5791,-0.574219 -3.27783,-0.574219 -3.22999,0 -5.02442,2.105469 -1.79443,2.081543 -1.79443,5.83789 0,3.756348 1.79443,5.861817 1.79443,2.081543 5.02442,2.081543 1.81835,0 3.44531,-0.598145 1.62695,-0.598144 2.99072,-1.770508 v 7.010254 q -1.79443,0.7417 -3.66064,1.100586 -1.86622,0.382813 -3.73243,0.382813 -6.53173,0 -10.2163,-3.708496 -3.68457,-3.732422 -3.68457,-10.359864 0,-6.627441 3.68457,-10.335937 3.68457,-3.732422 10.2163,-3.732422 1.89014,0 3.73243,0.382813 1.84228,0.358886 3.66064,1.100586 z"
       style="font-style:normal;font-variant:normal;font-weight:bold;font-stretch:semi-condensed;font-size:49px;line-height:125%;font-family:'DejaVu Sans';-inkscape-font-specification:'DejaVu Sans Bold Semi-Condensed';text-align:start;letter-spacing:-1.38999999px;writing-mode:lr-tb;text-anchor:start;fill:#52aad8;fill-opacity:1"
       id="path4504" /><path
       d="m 403.42467,26.876316 q -2.56006,0 -3.8999,2.057617 -1.33985,2.033692 -1.33985,5.885742 0,3.852051 1.33985,5.909668 1.33984,2.033692 3.8999,2.033692 2.53613,0 3.85205,-2.033692 1.33984,-2.057617 1.33984,-5.909668 0,-3.85205 -1.33984,-5.885742 -1.31592,-2.057617 -3.85205,-2.057617 z m 0,-6.125 q 6.24463,0 9.73779,3.732422 3.49316,3.732422 3.49316,10.335937 0,6.603516 -3.49316,10.335938 -3.49316,3.732422 -9.73779,3.732422 -6.22071,0 -9.76172,-3.732422 -3.51709,-3.732422 -3.51709,-10.335938 0,-6.603515 3.51709,-10.335937 3.54101,-3.732422 9.76172,-3.732422 z"
       style="font-style:normal;font-variant:normal;font-weight:bold;font-stretch:semi-condensed;font-size:49px;line-height:125%;font-family:'DejaVu Sans';-inkscape-font-specification:'DejaVu Sans Bold Semi-Condensed';text-align:start;letter-spacing:-1.38999999px;writing-mode:lr-tb;text-anchor:start;fill:#52aad8;fill-opacity:1"
       id="path4506" /><path
       d="m 438.83252,28.694675 q -1.02881,-0.526367 -2.03369,-0.765625 -0.98096,-0.263183 -2.00977,-0.263183 -2.96679,0 -4.56982,2.129394 -1.60303,2.105469 -1.60303,6.053223 v 12.345703 h -7.7041 V 21.397312 h 7.7041 v 4.402344 q 1.4834,-2.631836 3.39746,-3.828125 1.93799,-1.220215 4.6416,-1.220215 0.38282,0 0.83741,0.04785 0.45459,0.02392 1.31591,0.143554 z"
       style="font-style:normal;font-variant:normal;font-weight:bold;font-stretch:semi-condensed;font-size:49px;line-height:125%;font-family:'DejaVu Sans';-inkscape-font-specification:'DejaVu Sans Bold Semi-Condensed';text-align:start;letter-spacing:-1.38999999px;writing-mode:lr-tb;text-anchor:start;fill:#52aad8;fill-opacity:1"
       id="path4508" /><path
       d="M 457.65981,25.32114 V 10.965672 h 7.75195 v 37.228515 h -7.75195 v -3.875976 q -1.60303,2.368652 -3.51709,3.469238 -1.91407,1.100586 -4.4502,1.100586 -4.4502,0 -7.32129,-3.923828 -2.84717,-3.947754 -2.84717,-10.144532 0,-6.196777 2.84717,-10.120605 2.87109,-3.947754 7.32129,-3.947754 2.51221,0 4.42627,1.124512 1.93799,1.100586 3.54102,3.445312 z m -5.0962,17.346192 q 2.48829,0 3.78028,-2.009766 1.31592,-2.009766 1.31592,-5.837891 0,-3.828125 -1.31592,-5.83789 -1.29199,-2.009766 -3.78028,-2.009766 -2.44043,0 -3.75634,2.009766 -1.292,2.009765 -1.292,5.83789 0,3.828125 1.292,5.837891 1.31591,2.009766 3.75634,2.009766 z"
       style="font-style:normal;font-variant:normal;font-weight:bold;font-stretch:semi-condensed;font-size:49px;line-height:125%;font-family:'DejaVu Sans';-inkscape-font-specification:'DejaVu Sans Bold Semi-Condensed';text-align:start;letter-spacing:-1.38999999px;writing-mode:lr-tb;text-anchor:start;fill:#52aad8;fill-opacity:1"
       id="path4510" /><path
       d="m 495.50809,34.723972 v 2.44043 h -18.01612 q 0.26319,3.014648 1.93799,4.521973 1.69873,1.507324 4.71338,1.507324 2.44043,0 4.97656,-0.789551 2.56006,-0.813476 5.23975,-2.44043 v 6.603516 q -2.72754,1.148438 -5.479,1.722656 -2.72754,0.598145 -5.45508,0.598145 -6.55567,0 -10.19239,-3.68457 -3.61279,-3.708497 -3.61279,-10.38379 0,-6.555664 3.56494,-10.312011 3.56494,-3.756348 9.80957,-3.756348 5.69434,0 9.0918,3.804199 3.42139,3.8042 3.42139,10.168457 z m -7.91944,-2.847168 q 0,-2.440429 -1.29199,-3.923828 -1.26807,-1.507324 -3.34961,-1.507324 -2.2251,0 -3.63672,1.411621 -1.38769,1.387695 -1.74658,4.019531 z"
       style="font-style:normal;font-variant:normal;font-weight:bold;font-stretch:semi-condensed;font-size:49px;line-height:125%;font-family:'DejaVu Sans';-inkscape-font-specification:'DejaVu Sans Bold Semi-Condensed';text-align:start;letter-spacing:-1.38999999px;writing-mode:lr-tb;text-anchor:start;fill:#52aad8;fill-opacity:1"
       id="path4512" /><path
       d="m 517.92424,28.694675 q -1.02881,-0.526367 -2.03369,-0.765625 -0.98096,-0.263183 -2.00977,-0.263183 -2.96679,0 -4.56982,2.129394 -1.60303,2.105469 -1.60303,6.053223 v 12.345703 h -7.7041 V 21.397312 h 7.7041 v 4.402344 q 1.4834,-2.631836 3.39746,-3.828125 1.93799,-1.220215 4.6416,-1.220215 0.38282,0 0.83741,0.04785 0.45459,0.02392 1.31591,0.143554 z"
       style="font-style:normal;font-variant:normal;font-weight:bold;font-stretch:semi-condensed;font-size:49px;line-height:125%;font-family:'DejaVu Sans';-inkscape-font-specification:'DejaVu Sans Bold Semi-Condensed';text-align:start;letter-spacing:-1.38999999px;writing-mode:lr-tb;text-anchor:start;fill:#52aad8;fill-opacity:1"
       id="path4514" /></g></svg>