<?xml version="1.0" encoding="UTF-8" standalone="no"?>
<svg
   xmlns:dc="http://purl.org/dc/elements/1.1/"
   xmlns:cc="http://creativecommons.org/ns#"
   xmlns:rdf="http://www.w3.org/1999/02/22-rdf-syntax-ns#"
   xmlns:svg="http://www.w3.org/2000/svg"
   xmlns="http://www.w3.org/2000/svg"
   xmlns:sodipodi="http://sodipodi.sourceforge.net/DTD/sodipodi-0.dtd"
   xmlns:inkscape="http://www.inkscape.org/namespaces/inkscape"
   width="8"
   height="8"
   viewBox="0 0 8 8"
   id="svg4369"
   version="1.1"
   inkscape:version="0.48.5 r10040"
   sodipodi:docname="wrench.svg">
  <metadata
     id="metadata4377">
    <rdf:RDF>
      <cc:Work
         rdf:about="">
        <dc:format>image/svg+xml</dc:format>
        <dc:type
           rdf:resource="http://purl.org/dc/dcmitype/StillImage" />
      </cc:Work>
    </rdf:RDF>
  </metadata>
  <defs
     id="defs4375" />
  <sodipodi:namedview
     pagecolor="#ffffff"
     bordercolor="#666666"
     borderopacity="1"
     objecttolerance="10"
     gridtolerance="10"
     guidetolerance="10"
     inkscape:pageopacity="0"
     inkscape:pageshadow="2"
     inkscape:window-width="695"
     inkscape:window-height="480"
     id="namedview4373"
     showgrid="false"
     inkscape:zoom="29.5"
     inkscape:cx="4"
     inkscape:cy="4"
     inkscape:window-x="0"
     inkscape:window-y="24"
     inkscape:window-maximized="0"
     inkscape:current-layer="svg4369" />
  <path
     d="M5.5 0c-1.38 0-2.5 1.12-2.5 2.5 0 .32.08.62.19.91l-2.91 2.88c-.39.39-.39 1.05 0 1.44.2.2.46.28.72.28.26 0 .52-.09.72-.28l2.88-2.91c.28.11.58.19.91.19 1.38 0 2.5-1.12 2.5-2.5 0-.16 0-.32-.03-.47l-.97.97h-2v-2l.97-.97c-.15-.03-.31-.03-.47-.03zm-4.5 6.5c.28 0 .5.22.5.5s-.22.5-.5.5-.5-.22-.5-.5.22-.5.5-.5z"
     id="path4371"
     style="fill:#52aad8;fill-opacity:1" />
</svg>
